<?xml version="1.0" encoding="UTF-8"?>
<svg version="1.1" xmlns="http://www.w3.org/2000/svg" width="1837" height="460">
<path d="M0 0 C606.21 0 1212.42 0 1837 0 C1837 151.8 1837 303.6 1837 460 C1230.79 460 624.58 460 0 460 C0 308.2 0 156.4 0 0 Z " fill="#FCDB7C" transform="translate(0,0)"/>
<path d="M0 0 C0.98983887 0.13954102 1.97967773 0.27908203 2.99951172 0.42285156 C6.23168462 0.88975953 9.45999394 1.37688596 12.6875 1.875 C13.66041992 2.02420898 14.63333984 2.17341797 15.63574219 2.32714844 C24.58546668 3.7815902 33.10230168 5.90642392 42 8 C42 66.41 42 124.82 42 185 C-105.84 185 -253.68 185 -406 185 C-401.50359098 179.37948872 -401.50359098 179.37948872 -397.98046875 177.0546875 C-397.213396 176.54099609 -396.44632324 176.02730469 -395.65600586 175.49804688 C-394.84139893 174.96244141 -394.02679199 174.42683594 -393.1875 173.875 C-391.46220193 172.71814138 -389.73825772 171.55926127 -388.015625 170.3984375 C-387.16291016 169.82448242 -386.31019531 169.25052734 -385.43164062 168.65917969 C-382.04369978 166.34748832 -378.73224996 163.94200704 -375.4375 161.5 C-374.83921387 161.05744873 -374.24092773 160.61489746 -373.62451172 160.15893555 C-372.3930173 159.24768209 -371.16173737 158.3361387 -369.93066406 157.42431641 C-359.2277312 149.52839957 -348.37938232 141.84083681 -337.46875 134.2355957 C-331.87893729 130.33301813 -326.33146079 126.37707097 -320.8125 122.375 C-312.26009431 116.17527305 -303.65224627 110.0595626 -295 104 C-294.09523926 103.36626465 -293.19047852 102.7325293 -292.25830078 102.07958984 C-280.59417272 93.91802666 -268.9112389 85.79759618 -257 78 C-256.32807617 77.55849609 -255.65615234 77.11699219 -254.96386719 76.66210938 C-245.73250299 70.60389423 -236.41479991 64.7335671 -226.90234375 59.12695312 C-224.95930383 57.97589149 -223.02606874 56.80958218 -221.09375 55.640625 C-182.85015351 32.63352113 -141.5358217 15.00368693 -98 5 C-96.96447998 4.75773682 -95.92895996 4.51547363 -94.86206055 4.26586914 C-85.7752702 2.21764106 -76.6814978 0.86270718 -67.4375 -0.1875 C-66.68387177 -0.27404846 -65.93024353 -0.36059692 -65.15377808 -0.44976807 C-43.42948115 -2.89575199 -21.67837777 -3.06382321 0 0 Z " fill="#FDD35E" transform="translate(1795,275)"/>
<path d="M0 0 C1.04917099 -0.00705963 2.09834198 -0.01411926 3.17930603 -0.02139282 C47.01365374 -0.24929929 47.01365374 -0.24929929 65.87890625 3.203125 C67.58699463 3.50911621 67.58699463 3.50911621 69.32958984 3.82128906 C100.66558769 9.57354839 130.50581087 18.99379023 159.87890625 31.203125 C160.67538574 31.5340918 161.47186523 31.86505859 162.29248047 32.20605469 C164.55507308 33.15296909 166.81192935 34.11206681 169.06640625 35.078125 C170.08299316 35.50738281 170.08299316 35.50738281 171.12011719 35.9453125 C175.7614074 37.9681273 175.7614074 37.9681273 176.87890625 40.203125 C74.57890625 40.203125 -27.72109375 40.203125 -133.12109375 40.203125 C-130.06070093 37.14273218 -127.12969577 35.49820324 -123.30859375 33.640625 C-122.60774658 33.29765381 -121.90689941 32.95468262 -121.18481445 32.60131836 C-118.83445357 31.45965624 -116.47781054 30.33160081 -114.12109375 29.203125 C-113.30640625 28.80641602 -112.49171875 28.40970703 -111.65234375 28.00097656 C-82.59641723 13.91019738 -52.05377462 5.47641172 -20.12109375 1.203125 C-19.14907768 1.07209381 -19.14907768 1.07209381 -18.15742493 0.93841553 C-12.09721764 0.18601569 -6.10247339 0.02722108 0 0 Z " fill="#FDD566" transform="translate(145.12109375,419.796875)"/>
<path d="M0 0 C5.52790044 -0.3685267 5.52790044 -0.3685267 7.53125 1.1953125 C9.29166263 3.3583727 10.4598339 5.5592409 11.6875 8.0625 C12.12449219 8.94035156 12.56148437 9.81820312 13.01171875 10.72265625 C14 13 14 13 14 15 C15.78857422 14.94779297 15.78857422 14.94779297 17.61328125 14.89453125 C19.17967342 14.86639247 20.74608081 14.8390924 22.3125 14.8125 C23.09818359 14.78736328 23.88386719 14.76222656 24.69335938 14.73632812 C25.45068359 14.72666016 26.20800781 14.71699219 26.98828125 14.70703125 C28.03302612 14.68346558 28.03302612 14.68346558 29.09887695 14.65942383 C31.60960938 15.10920831 32.45662648 16.00312061 34 18 C34.75 21.125 34.75 21.125 34 25 C31.94921875 27.140625 31.94921875 27.140625 29.4375 29.375 C26.0488857 32.34054869 26.0488857 32.34054869 24.5546875 36.3984375 C25.01106183 40.56112456 26.39553895 44.14929347 28 48 C28.3411764 50.8658818 28.36396768 52.3577041 26.9375 54.875 C24.54873732 56.26202349 22.87215605 56.22380198 20.18359375 55.7265625 C15.48306818 54.16252358 11.24788496 51.51185964 7 49 C6.14277344 49.66128906 5.28554687 50.32257813 4.40234375 51.00390625 C3.24816471 51.85781107 2.09317308 52.71061831 0.9375 53.5625 C0.09541992 54.21895508 0.09541992 54.21895508 -0.76367188 54.88867188 C-4.12304802 57.32661913 -5.73357376 58.01508073 -9.93359375 57.77734375 C-11.45146484 57.39255859 -11.45146484 57.39255859 -13 57 C-13.02687279 55.18757948 -13.04633715 53.37504767 -13.0625 51.5625 C-13.07410156 50.55316406 -13.08570312 49.54382813 -13.09765625 48.50390625 C-13 46 -13 46 -12 45 C-11.76807135 43.48530552 -11.58784762 41.96245438 -11.4375 40.4375 C-11.35371094 39.61121094 -11.26992187 38.78492188 -11.18359375 37.93359375 C-11.12300781 37.29550781 -11.06242187 36.65742188 -11 36 C-11.66 35.79375 -12.32 35.5875 -13 35.375 C-17.13361503 33.48042644 -20.88351999 31.35912565 -24 28 C-24.5 24.125 -24.5 24.125 -24 21 C-17.97181491 16.71329061 -13.28695785 16.525623 -6 17 C-6 15.02 -6 13.04 -6 11 C-5.34 11 -4.68 11 -4 11 C-3.896875 10.29875 -3.79375 9.5975 -3.6875 8.875 C-2.90640997 5.60862353 -1.57941257 2.9528148 0 0 Z " fill="#F9B411" transform="translate(80,152)"/>
<path d="M0 0 C1.32 0 2.64 0 4 0 C10 13.36893204 10 13.36893204 10 17 C11.11375 16.95875 12.2275 16.9175 13.375 16.875 C18.39901336 16.85699278 23.1218197 17.88041764 28 19 C28.6953125 20.78125 28.6953125 20.78125 29 23 C27.7421875 24.78125 27.7421875 24.78125 25.875 26.5 C24.91207031 27.42039062 24.91207031 27.42039062 23.9296875 28.359375 C22 30 22 30 19 31.75 C16.72817289 33.82947596 16.72817289 33.82947596 16.8828125 36.65234375 C16.95293787 41.70321279 16.95293787 41.70321279 19 46 C19.14115161 48.67058851 19.04247107 51.32432238 19 54 C17.36328125 54.75 17.36328125 54.75 15 55 C11.87788596 53.09766818 9.06937395 50.90953348 6.16796875 48.6875 C2.1642008 46.55479007 0.3261527 46.80895455 -4 48 C-6.68121118 49.43775092 -9.07234621 51.08849561 -11.5703125 52.8203125 C-14.52428605 54.25455689 -15.91988986 53.95362841 -19 53 C-18.45484328 45.91296261 -16.39081395 39.67203894 -14 33 C-14.85658203 32.62294922 -14.85658203 32.62294922 -15.73046875 32.23828125 C-18.31032205 30.83068487 -20.18943905 29.2174102 -22.3125 27.1875 C-23.03050781 26.52105469 -23.74851562 25.85460937 -24.48828125 25.16796875 C-24.98714844 24.45253906 -25.48601562 23.73710937 -26 23 C-25.67 21.35 -25.34 19.7 -25 18 C-16.585 17.01 -16.585 17.01 -8 16 C-6.11007336 11.48491497 -6.11007336 11.48491497 -4.23095703 6.96533203 C-3.06095754 4.20267963 -2.1401592 2.1401592 0 0 Z " fill="#FCE192" transform="translate(1052,241)"/>
<path d="M0 0 C3.48259496 1.61388547 4.25892948 3.70211231 5.86328125 7.08203125 C6.5625 9.1875 6.5625 9.1875 6.5625 13.1875 C7.14257812 13.23648438 7.72265625 13.28546875 8.3203125 13.3359375 C13.00173092 13.78399405 17.13735459 14.485521 21.5625 16.1875 C22.0575 18.6625 22.0575 18.6625 22.5625 21.1875 C21.27622289 22.36010611 19.98330217 23.5254283 18.6875 24.6875 C17.96820312 25.3371875 17.24890625 25.986875 16.5078125 26.65625 C14.5625 28.1875 14.5625 28.1875 12.5625 28.1875 C13.0575 29.6415625 13.0575 29.6415625 13.5625 31.125 C14.80626626 35.43848725 14.97431327 39.72459341 14.5625 44.1875 C13.5625 45.1875 13.5625 45.1875 11 45.5625 C7.4197816 45.17193072 6.35637302 44.55330544 3.5 42.5625 C0.50853345 40.40161188 0.50853345 40.40161188 -3.0625 40.6875 C-3.84625 41.1825 -4.63 41.6775 -5.4375 42.1875 C-9.3172116 44.28901045 -11.97334995 45.69768858 -16.4375 45.1875 C-17.4375 44.1875 -17.4375 44.1875 -17.625 40.6875 C-17.58273561 36.02151141 -16.6040997 31.6872417 -15.4375 27.1875 C-16.03949219 26.90519531 -16.64148437 26.62289062 -17.26171875 26.33203125 C-20.31854664 24.72404099 -22.26163852 22.86070125 -24.4375 20.1875 C-24.35735673 16.74133944 -23.8818896 15.6318896 -21.4375 13.1875 C-18.3984375 12.9921875 -18.3984375 12.9921875 -14.8125 13.0625 C-13.02972656 13.08957031 -13.02972656 13.08957031 -11.2109375 13.1171875 C-10.29570313 13.14039063 -9.38046875 13.16359375 -8.4375 13.1875 C-8.25574219 12.50042969 -8.07398438 11.81335938 -7.88671875 11.10546875 C-7.63535156 10.20441406 -7.38398437 9.30335938 -7.125 8.375 C-6.88136719 7.48167969 -6.63773438 6.58835938 -6.38671875 5.66796875 C-5.04202627 2.15406042 -3.85752408 0.29673262 0 0 Z " fill="#F9B817" transform="translate(1481.4375,203.8125)"/>
<path d="M0 0 C2.64 0.33 5.28 0.66 8 1 C8.268125 2.0725 8.53625 3.145 8.8125 4.25 C9.906014 7.70320209 10.56294938 9.43239309 13 12 C15.4829419 12.90561146 15.4829419 12.90561146 18.1875 13.25 C19.08855469 13.39953125 19.98960938 13.5490625 20.91796875 13.703125 C21.94857422 13.85007813 21.94857422 13.85007813 23 14 C23.495 17.465 23.495 17.465 24 21 C23.3503125 21.33128906 22.700625 21.66257813 22.03125 22.00390625 C19.11219008 23.80129037 17.12571762 25.28887967 15 28 C14.38917512 32.09337509 14.46231874 35.7630185 14.78125 39.8671875 C14.88953125 41.41792969 14.88953125 41.41792969 15 43 C14 44 14 44 11.375 44.4375 C7.65854607 43.95573745 7.04762302 43.4048373 4.4375 40.9375 C1.88863799 38.4142744 1.88863799 38.4142744 -1.5625 37.9375 C-3.40749297 38.7417277 -5.21494769 39.63278526 -7 40.5625 C-10.02360695 42.01131166 -11.71109809 42.29019723 -15 42 C-16.61266716 37.45521073 -15.30844662 34.4481625 -13.59375 30.18359375 C-12.90110379 27.63629618 -12.98262475 26.42449127 -14 24 C-15.010625 23.21625 -16.02125 22.4325 -17.0625 21.625 C-20 19 -20 19 -20.5 15.8125 C-20 13 -20 13 -18 11 C-14.9609375 10.8046875 -14.9609375 10.8046875 -11.375 10.875 C-9.59222656 10.90207031 -9.59222656 10.90207031 -7.7734375 10.9296875 C-6.85820313 10.95289062 -5.94296875 10.97609375 -5 11 C-4.81630859 10.12601563 -4.81630859 10.12601563 -4.62890625 9.234375 C-3.6601075 5.7924316 -1.8272383 3.06504489 0 0 Z " fill="#F8B30E" transform="translate(1745,117)"/>
<path d="M0 0 C1.2065625 0.0309375 1.2065625 0.0309375 2.4375 0.0625 C3.27569158 1.68499941 4.1079116 3.31058497 4.9375 4.9375 C5.4015625 5.84242188 5.865625 6.74734375 6.34375 7.6796875 C7.4375 10.0625 7.4375 10.0625 7.4375 12.0625 C8.71947266 12.15337891 8.71947266 12.15337891 10.02734375 12.24609375 C11.13207031 12.32988281 12.23679687 12.41367187 13.375 12.5 C14.47714844 12.58121094 15.57929688 12.66242188 16.71484375 12.74609375 C19.4375 13.0625 19.4375 13.0625 20.4375 14.0625 C20.9375 16.75 20.9375 16.75 20.4375 20.0625 C18.83984375 21.30078125 18.83984375 21.30078125 16.875 22.5625 C14.82464073 23.93605828 14.82464073 23.93605828 13.4375 26.0625 C13.20946048 29.87032977 13.557309 33.33678624 14.0703125 37.11328125 C14.19148438 38.08652344 14.31265625 39.05976563 14.4375 40.0625 C14.1075 40.3925 13.7775 40.7225 13.4375 41.0625 C9.19488935 40.81293467 6.83040173 40.33753121 3.3125 37.875 C0.62088513 35.70786414 0.62088513 35.70786414 -2.125 36.625 C-3.79322095 37.60882261 -5.43867301 38.63201246 -7.0625 39.6875 C-9.84796368 41.21950502 -11.43384719 41.41012809 -14.5625 41.0625 C-15.5625 40.0625 -15.5625 40.0625 -15.6875 37 C-15.5625 33.0625 -15.5625 33.0625 -15.08984375 31.03125 C-14.48409767 28.70745633 -14.48409767 28.70745633 -14.5625 25.0625 C-16.5776004 22.57791285 -18.90045946 20.81506534 -21.5625 19.0625 C-21.2325 17.4125 -20.9025 15.7625 -20.5625 14.0625 C-16.02548506 12.61065522 -12.38188524 11.82740804 -7.5625 12.0625 C-7.4078125 11.010625 -7.4078125 11.010625 -7.25 9.9375 C-4.90223333 0.11956667 -4.90223333 0.11956667 0 0 Z " fill="#F9B91B" transform="translate(488.5625,398.9375)"/>
<path d="M0 0 C2.3125 0.125 2.3125 0.125 5 1 C7.36101949 4.66365093 8 6.59781468 8 11 C9.28197266 11.09087891 9.28197266 11.09087891 10.58984375 11.18359375 C11.69457031 11.26738281 12.79929687 11.35117188 13.9375 11.4375 C15.03964844 11.51871094 16.14179687 11.59992188 17.27734375 11.68359375 C20 12 20 12 21 13 C21.5 15.1875 21.5 15.1875 21 18 C19.83978787 18.85101134 18.64713271 19.65833301 17.4375 20.4375 C15.38456525 21.84017276 15.38456525 21.84017276 14 24 C13.77219666 27.80818421 14.11976283 31.27394639 14.6328125 35.05078125 C14.75398437 36.02402344 14.87515625 36.99726563 15 38 C14 39 14 39 11.875 39.375 C7.73194964 38.83460213 5.19281595 36.57633564 2 34 C-0.26834392 35.09216559 -2.33749958 36.22499972 -4.4375 37.625 C-7.25606935 39.13740306 -8.85197939 39.34978007 -12 39 C-12.33 38.67 -12.66 38.34 -13 38 C-12.8210731 36.2928269 -12.63764949 34.58596457 -12.42773438 32.88232422 C-11.49671155 26.64750224 -11.49671155 26.64750224 -13.30078125 20.84765625 C-14.83066785 19.52175453 -16.4127054 18.25660823 -18 17 C-17.875 14.125 -17.875 14.125 -17 12 C-12.9472484 11.01751476 -9.16138263 10.91840426 -5 11 C-4.9175 10.29875 -4.835 9.5975 -4.75 8.875 C-3.82972275 5.34727053 -2.11873023 2.93888386 0 0 Z " fill="#F9B81C" transform="translate(750,205)"/>
<path d="M0 0 C3.125 0.25 3.125 0.25 4.72265625 1.5234375 C6.22075027 3.36788752 6.92442975 4.88375368 7.6875 7.125 C8.16491706 8.50060847 8.64420118 9.87556987 9.125 11.25 C9.36476563 12.13558594 9.60453125 13.02117187 9.8515625 13.93359375 C10.92899184 16.52034676 10.92899184 16.52034676 13.76953125 17.10546875 C15.33767578 17.26982422 15.33767578 17.26982422 16.9375 17.4375 C26.37990196 18.50490196 26.37990196 18.50490196 29.125 21.25 C29.50148332 25.16542651 29.59844079 27.48521104 27.5 30.875 C24.81281805 33.56218195 22.15155285 35.94718805 19.125 38.25 C18.465 38.25 17.805 38.25 17.125 38.25 C17.3415625 39.0234375 17.558125 39.796875 17.78125 40.59375 C21.68941718 55.21319018 21.68941718 55.21319018 19.0625 60.3125 C16.67250513 61.46894913 14.82706578 61.5116458 12.2265625 61.046875 C8.5109338 59.6379749 5.54301787 57.10750715 2.45703125 54.6484375 C0.29644492 53.05888034 0.29644492 53.05888034 -1.83984375 53.34765625 C-5.40386831 54.92786675 -8.68273029 56.97293714 -12.0234375 58.97265625 C-15.24081125 60.41386339 -17.38707668 60.5652925 -20.875 60.25 C-22.75 59.1875 -22.75 59.1875 -23.875 57.25 C-24.53300004 51.87633304 -23.20472004 47.58054322 -21.43359375 42.58203125 C-20.79136546 39.90084042 -20.75708965 38.76529829 -21.875 36.25 C-23.95942709 34.06594415 -23.95942709 34.06594415 -26.4375 31.9375 C-30.78706395 27.75363372 -30.78706395 27.75363372 -31.5625 23.3125 C-30.875 20.25 -30.875 20.25 -28.875 18.25 C-26.4921875 18.0546875 -26.4921875 18.0546875 -23.75 18.125 C-22.38488281 18.15207031 -22.38488281 18.15207031 -20.9921875 18.1796875 C-20.29351563 18.20289063 -19.59484375 18.22609375 -18.875 18.25 C-18.875 17.59 -18.875 16.93 -18.875 16.25 C-16.235 16.25 -13.595 16.25 -10.875 16.25 C-10.70484375 15.66992188 -10.5346875 15.08984375 -10.359375 14.4921875 C-6.02601018 0.52400088 -6.02601018 0.52400088 0 0 Z M-1.875 3.25 C-4.7454258 6.1700381 -6.05142147 9.74272365 -7.5625 13.5 C-8.325625 15.3975 -9.08875 17.295 -9.875 19.25 C-15.485 19.91 -21.095 20.57 -26.875 21.25 C-27.205 22.9 -27.535 24.55 -27.875 26.25 C-25.87610347 29.05319167 -25.87610347 29.05319167 -23.0625 31.5625 C-21.69158203 32.88701172 -21.69158203 32.88701172 -20.29296875 34.23828125 C-18.14299116 36.46319114 -18.14299116 36.46319114 -15.875 36.25 C-16.24753906 37.34699219 -16.62007812 38.44398438 -17.00390625 39.57421875 C-17.48239243 41.02844146 -17.96022263 42.48288011 -18.4375 43.9375 C-18.68435547 44.65873047 -18.93121094 45.37996094 -19.18554688 46.12304688 C-20.50520068 50.19352832 -21.26492772 53.03027933 -19.875 57.25 C-14.35060033 56.95924212 -10.80238626 54.52352158 -6.33984375 51.52734375 C-3.44534811 50.02734363 -2.08806976 49.70309451 1.125 50.25 C4.33944901 52.180359 7.26895107 54.37258685 10.28515625 56.59765625 C12.9240426 58.50818254 12.9240426 58.50818254 15.49609375 57.99609375 C16.03363281 57.74988281 16.57117187 57.50367188 17.125 57.25 C17.3191204 51.71756872 16.73840977 47.59441987 15.125 42.25 C14.6875 39.90625 14.6875 39.90625 15.125 37.25 C17.08407343 35.08977171 18.91746724 33.29948427 21.125 31.4375 C21.98351563 30.68436523 21.98351563 30.68436523 22.859375 29.91601562 C24.27033593 28.68142481 25.69627584 27.46399032 27.125 26.25 C26.63 24.27 26.63 24.27 26.125 22.25 C20.00519467 20.84545452 14.40760706 20.01731085 8.125 20.25 C7.92197266 19.41662109 7.92197266 19.41662109 7.71484375 18.56640625 C7.08466574 16.09160123 6.40128503 13.639518 5.6875 11.1875 C5.44128906 10.33027344 5.19507813 9.47304687 4.94140625 8.58984375 C4.15614073 6.02628207 4.15614073 6.02628207 2.125 3.25 C0.805 3.25 -0.515 3.25 -1.875 3.25 Z " fill="#FBBF2E" transform="translate(1053.875,237.75)"/>
<path d="M0 0 C4.00282021 3.76022504 6.11951705 8.90869244 8 14 C8 14.66 8 15.32 8 16 C8.71285156 15.97679687 9.42570312 15.95359375 10.16015625 15.9296875 C15.86503153 15.82219321 20.64911486 15.95072484 26 18 C28 20 28 20 28.44140625 22.2890625 C27.65114975 27.14249625 23.52888958 29.81200361 20.08984375 33.0859375 C17.62857687 35.89082092 17.62857687 35.89082092 18.12890625 39.6015625 C18.6028365 41.45052803 19.07677849 43.29949056 19.55078125 45.1484375 C20.08375069 47.3451985 20.1686142 49.36625823 20.1875 51.625 C20.20167969 52.40101563 20.21585937 53.17703125 20.23046875 53.9765625 C20 56 20 56 18 58 C13.14418317 58.55397347 10.47243605 57.47098511 6.375 54.9375 C2.93300483 52.65222043 2.93300483 52.65222043 -0.99609375 52.09375 C-4.69833964 53.76806003 -7.91391834 56.20058055 -11.24609375 58.50390625 C-14.18840021 60.10235075 -15.71409072 60.40224062 -19 60 C-20.8125 59 -20.8125 59 -22 57 C-22.72316246 50.25048369 -20.98362987 44.42318245 -19 38 C-19.57234375 37.73574219 -20.1446875 37.47148437 -20.734375 37.19921875 C-24.70529118 35.09737174 -28.09214989 32.43153876 -31 29 C-31.625 25.1875 -31.625 25.1875 -31 22 C-28.59881473 19.59881473 -26.94503958 19.24779139 -23.6875 18.375 C-22.74261719 18.11460937 -21.79773438 17.85421875 -20.82421875 17.5859375 C-18.12148098 17.02520352 -15.74968152 16.8898124 -13 17 C-12.81824219 16.34773438 -12.63648438 15.69546875 -12.44921875 15.0234375 C-11.03222671 10.09666516 -9.62258951 5.4469996 -7 1 C-4.37869511 -0.31065245 -2.90828303 -0.415469 0 0 Z M-4 3 C-6.97623218 6.09099691 -8.21684319 9.77525187 -9.6875 13.75 C-10.12449219 14.92046875 -10.56148438 16.0909375 -11.01171875 17.296875 C-11.33785156 18.18890625 -11.66398437 19.0809375 -12 20 C-13.60681641 20.19916016 -13.60681641 20.19916016 -15.24609375 20.40234375 C-16.64325769 20.5805056 -18.04039159 20.75890319 -19.4375 20.9375 C-20.14455078 21.02451172 -20.85160156 21.11152344 -21.58007812 21.20117188 C-25.08817968 21.38216191 -25.08817968 21.38216191 -28 23 C-28.40192496 25.38640894 -28.40192496 25.38640894 -28 28 C-26.38843509 30.0373092 -26.38843509 30.0373092 -24.1875 31.6875 C-23.47980469 32.26886719 -22.77210938 32.85023438 -22.04296875 33.44921875 C-20.40543543 34.69224118 -18.71059102 35.85960599 -17 37 C-17.46868548 41.8663514 -17.94829582 46.72011034 -18.625 51.5625 C-18.74875 52.696875 -18.8725 53.83125 -19 55 C-17.97266683 56.22639909 -17.97266683 56.22639909 -15.8125 56.3203125 C-10.97934608 55.76986997 -7.72700903 52.42582062 -3.9375 49.5546875 C-1 48 -1 48 1.58984375 48.58984375 C2.38519531 49.05519531 3.18054688 49.52054688 4 50 C4.76441406 50.43699219 5.52882813 50.87398437 6.31640625 51.32421875 C7.81917732 52.23633545 9.31917117 53.15304292 10.81640625 54.07421875 C13.37100779 55.15729668 14.44653975 54.95537629 17 54 C16.48446121 47.50149789 15.53332291 41.33773468 14 35 C14.9075 34.278125 15.815 33.55625 16.75 32.8125 C22.0937971 28.45145976 22.0937971 28.45145976 24.25 22.1875 C24.1675 21.465625 24.085 20.74375 24 20 C17.95170514 19.10395632 12.1105424 18.88730557 6 19 C5.82984375 18.43152344 5.6596875 17.86304688 5.484375 17.27734375 C3.84932263 12.0677886 1.86690828 7.64636859 -1 3 C-1.99 3 -2.98 3 -4 3 Z " fill="#FBBD2B" transform="translate(434,170)"/>
<path d="M0 0 C1.65 0 3.3 0 5 0 C8 5.75 8 5.75 8 8 C11.3 8.33 14.6 8.66 18 9 C18 14 18 14 16.125 16.3125 C14 18 14 18 12 18 C12.15597656 18.78246094 12.31195312 19.56492187 12.47265625 20.37109375 C12.76462891 21.88896484 12.76462891 21.88896484 13.0625 23.4375 C13.25972656 24.44683594 13.45695312 25.45617187 13.66015625 26.49609375 C13.77230469 27.32238281 13.88445312 28.14867187 14 29 C13 30 13 30 10.6875 30.25 C8 30 8 30 5.9375 28.4375 C4.13146012 26.7629822 4.13146012 26.7629822 2 27.1875 C-0.03480507 27.95987784 -0.03480507 27.95987784 -1.9375 29.125 C-4.62880544 30.26676595 -6.20797531 29.65315899 -9 29 C-8.94199219 28.26394531 -8.88398437 27.52789062 -8.82421875 26.76953125 C-8.35203168 20.35760324 -8.35203168 20.35760324 -11.5625 15.0625 C-12.366875 14.381875 -13.17125 13.70125 -14 13 C-13.67 11.68 -13.34 10.36 -13 9 C-9.7 8.67 -6.4 8.34 -3 8 C-2.690625 7.05125 -2.38125 6.1025 -2.0625 5.125 C-1 2 -1 2 0 0 Z " fill="#F9B91C" transform="translate(1323,354)"/>
<path d="M0 0 C3.97752628 1.01387925 4.38616997 2.0853515 6.5 5.5 C8.43831698 8.93402614 9.59007285 11.91165211 10.1875 15.8125 C11.30769531 15.77769531 12.42789062 15.74289062 13.58203125 15.70703125 C15.05467251 15.67889161 16.52732998 15.65159163 18 15.625 C19.10698242 15.58729492 19.10698242 15.58729492 20.23632812 15.54882812 C25.67572688 15.47499013 25.67572688 15.47499013 28.18359375 17.12890625 C29.52193422 19.37336051 29.56597424 21.21463891 29.11328125 23.76171875 C27.05998588 28.31015786 22.85608161 31.54412729 19.1875 34.8125 C19.4040625 35.52535156 19.620625 36.23820312 19.84375 36.97265625 C23.64889283 50.06164292 23.64889283 50.06164292 21.125 54.8125 C17.85900085 56.49817698 15.68335941 55.72944673 12.1875 54.8125 C10.09187384 53.56387265 8.13008145 52.23825619 6.1796875 50.7734375 C3.41681945 49.44075997 2.07285588 49.86388985 -0.8125 50.8125 C-2.49272342 51.79773402 -4.13881067 52.8430112 -5.75 53.9375 C-10.35995092 56.82043946 -10.35995092 56.82043946 -14.375 56.75 C-16.8125 55.8125 -16.8125 55.8125 -17.8125 54.8125 C-17.91284662 53.10660743 -17.94215623 51.39633504 -17.9375 49.6875 C-17.94007812 48.75679688 -17.94265625 47.82609375 -17.9453125 46.8671875 C-17.8125 43.8125 -17.8125 43.8125 -16.96484375 40.265625 C-16.41167926 36.65912757 -16.41167926 36.65912757 -19.12109375 34.1171875 C-20.66990234 32.91449219 -20.66990234 32.91449219 -22.25 31.6875 C-27.71022792 27.40952418 -27.71022792 27.40952418 -28.26953125 24.14453125 C-27.8125 21.8125 -27.8125 21.8125 -26.0625 19.625 C-22.57694859 17.68113479 -20.72009162 17.59642599 -16.8125 17.3125 C-13.62864433 17.03109839 -13.62864433 17.03109839 -10.8125 15.8125 C-8.82934505 12.83125832 -7.81196263 10.07980018 -6.77734375 6.66015625 C-5.39688235 2.58583901 -4.1163718 1.18917408 0 0 Z M-1.8125 3.8125 C-5.97594963 11.41525786 -5.97594963 11.41525786 -7.8125 19.8125 C-8.46476562 19.78929687 -9.11703125 19.76609375 -9.7890625 19.7421875 C-17.0204343 19.55786499 -17.0204343 19.55786499 -23.8125 21.8125 C-24.49771521 23.84397341 -24.49771521 23.84397341 -24.8125 25.8125 C-23.35655245 27.12764604 -21.89766421 28.43953717 -20.4375 29.75 C-19.62539062 30.48089844 -18.81328125 31.21179688 -17.9765625 31.96484375 C-15.95325833 33.84239471 -15.95325833 33.84239471 -13.8125 34.8125 C-13.55543028 40.72510345 -14.5142874 46.05168159 -15.8125 51.8125 C-14.20394118 53.21913542 -14.20394118 53.21913542 -11.8125 53.8125 C-8.91827849 52.25694942 -6.4001342 50.52322992 -3.765625 48.578125 C-2.1015625 47.4375 -2.1015625 47.4375 1.1875 45.8125 C4.98689579 46.54014186 7.0676571 47.7293437 10.25 49.9375 C13.31648689 51.89483206 14.64658861 52.22907781 18.1875 51.8125 C19.2516631 47.89189912 19.0644831 45.61107406 17.6875 41.8125 C16.32357209 38.04994024 15.88163104 35.66071288 17.1875 31.8125 C18.74609375 30.1171875 18.74609375 30.1171875 20.625 28.6875 C23.12608373 26.75555641 24.38141738 25.52162393 26.1875 22.8125 C25.8575 21.1625 25.5275 19.5125 25.1875 17.8125 C19.5775 17.8125 13.9675 17.8125 8.1875 17.8125 C7.5275 15.8325 6.8675 13.8525 6.1875 11.8125 C5.05220611 9.49245718 5.05220611 9.49245718 3.75 7.4375 C3.33878906 6.74914062 2.92757813 6.06078125 2.50390625 5.3515625 C2.06949219 4.84367187 1.63507813 4.33578125 1.1875 3.8125 C0.1975 3.8125 -0.7925 3.8125 -1.8125 3.8125 Z " fill="#FBBC24" transform="translate(1665.8125,351.1875)"/>
<path d="M0 0 C1.9375 0.25 1.9375 0.25 4 1 C6 4 6 4 6 7 C8.64 7 11.28 7 14 7 C14.33 8.65 14.66 10.3 15 12 C14.34515625 12.38800781 13.6903125 12.77601563 13.015625 13.17578125 C10.76018967 14.83325291 10.76018967 14.83325291 10.609375 17.48046875 C10.65578125 18.37378906 10.7021875 19.26710938 10.75 20.1875 C10.80414063 21.53908203 10.80414063 21.53908203 10.859375 22.91796875 C10.90578125 23.60503906 10.9521875 24.29210937 11 25 C9.12109375 25.59765625 9.12109375 25.59765625 7 26 C6.360625 25.484375 5.72125 24.96875 5.0625 24.4375 C4.381875 23.963125 3.70125 23.48875 3 23 C0.49034386 23.70339566 0.49034386 23.70339566 -2 25 C-3.65919896 25.36871088 -5.3247643 25.71281674 -7 26 C-7.66867189 23.15814445 -7.99211597 20.87122748 -7.8125 17.9375 C-8.05132817 14.19585868 -9.39254904 13.52333964 -12 11 C-11.75 8.75 -11.75 8.75 -11 7 C-8.36 7 -5.72 7 -3 7 C-2.690625 6.030625 -2.38125 5.06125 -2.0625 4.0625 C-1 1 -1 1 0 0 Z " fill="#F8B81C" transform="translate(247,364)"/>
<path d="M0 0 C4.20118156 1.62318378 5.91846857 5.05651212 7.75 9.0625 C7.75 10.0525 7.75 11.0425 7.75 12.0625 C8.35328125 12.02769531 8.9565625 11.99289063 9.578125 11.95703125 C16.04942251 11.73784214 16.04942251 11.73784214 19.3125 13.25 C20.75 15.0625 20.75 15.0625 21.375 17.375 C20.75 20.0625 20.75 20.0625 17.75 22.4375 C14.99887117 24.8664826 14.75702901 25.99122735 14.38671875 29.74609375 C14.37370604 32.46900425 14.49238181 35.17595866 14.63671875 37.89453125 C14.69279297 39.46267578 14.69279297 39.46267578 14.75 41.0625 C13.75 42.0625 13.75 42.0625 10.4375 42.3125 C6.46601545 42.04324681 5.70975394 41.43030315 2.75 39.0625 C-0.51107367 38.56079636 -1.85875925 38.82173646 -4.6875 40.5625 C-7.79968191 42.38426502 -9.698575 42.45710278 -13.25 42.0625 C-13.91 41.4025 -14.57 40.7425 -15.25 40.0625 C-15.07676987 37.78452385 -14.81279691 35.51303825 -14.5 33.25 C-13.83133195 28.47770789 -13.83133195 28.47770789 -15.51171875 24.23828125 C-17.06818826 23.1462129 -18.65803837 22.10214841 -20.25 21.0625 C-20.8125 17.9375 -20.8125 17.9375 -20.25 15.0625 C-18.98828125 13.38671875 -18.98828125 13.38671875 -17.25 12.0625 C-15.1640625 11.90234375 -15.1640625 11.90234375 -12.875 12 C-10.46261765 11.94570804 -10.46261765 11.94570804 -8.25 11.0625 C-5.95208456 7.96085357 -4.64190424 4.64168234 -3.25 1.0625 C-2.25 0.0625 -2.25 0.0625 0 0 Z M-1.25 4.0625 C-1.49492188 4.77277344 -1.73984375 5.48304688 -1.9921875 6.21484375 C-3.18715304 9.15281075 -4.30276776 11.55035643 -6.25 14.0625 C-9.63002475 15.23389789 -12.70065061 15.29682598 -16.25 15.0625 C-16.58 16.7125 -16.91 18.3625 -17.25 20.0625 C-16.239375 20.578125 -15.22875 21.09375 -14.1875 21.625 C-12.51953125 22.953125 -12.51953125 22.953125 -11.25 25.0625 C-11.00633226 30.15244834 -11.5528631 35.02410148 -12.25 40.0625 C-9.33156292 39.46089236 -7.2404397 38.55628581 -4.75 36.9375 C-1.25 35.0625 -1.25 35.0625 0.875 35.125 C2.75 36.0625 2.75 36.0625 5.25 37.625 C7.8473012 39.39481408 7.8473012 39.39481408 11.75 39.0625 C11.59660156 38.20527344 11.44320313 37.34804687 11.28515625 36.46484375 C10.01572946 27.15921099 10.01572946 27.15921099 12.27734375 23.78125 C14.25 22 14.25 22 16.28125 20.52734375 C16.7659375 20.04394531 17.250625 19.56054688 17.75 19.0625 C17.52742261 16.90429424 17.3022436 15.6147436 15.75 14.0625 C14.06816052 13.82962992 12.3787584 13.64985834 10.6875 13.5 C9.76839844 13.41621094 8.84929687 13.33242187 7.90234375 13.24609375 C7.19207031 13.18550781 6.48179688 13.12492188 5.75 13.0625 C4.43 10.0925 3.11 7.1225 1.75 4.0625 C0.76 4.0625 -0.23 4.0625 -1.25 4.0625 Z " fill="#FABE2D" transform="translate(1301.25,135.9375)"/>
<path d="M0 0 C1.32 0.33 2.64 0.66 4 1 C4.33 2.32 4.66 3.64 5 5 C6.98 5 8.96 5 11 5 C11.625 7.375 11.625 7.375 12 10 C11.34 10.66 10.68 11.32 10 12 C9.54188325 13.97235333 9.54188325 13.97235333 9.375 16.125 C9.25125 17.40375 9.1275 18.6825 9 20 C8.41992188 19.91621094 7.83984375 19.83242187 7.2421875 19.74609375 C2.57684697 19.13790579 -1.35442117 18.92794335 -6 20 C-5.938125 18.741875 -5.87625 17.48375 -5.8125 16.1875 C-5.70441438 12.87839722 -5.70441438 12.87839722 -7.5625 10.25 C-8.036875 9.8375 -8.51125 9.425 -9 9 C-8.6875 6.8125 -8.6875 6.8125 -8 5 C-6.8553125 4.87625 -6.8553125 4.87625 -5.6875 4.75 C-2.47626739 3.85384206 -1.70625501 2.78388975 0 0 Z " fill="#F9B719" transform="translate(615,117)"/>
<path d="M0 0 C0.99 0.33 1.98 0.66 3 1 C3.28875 1.66 3.5775 2.32 3.875 3 C4.8553382 5.29150599 4.8553382 5.29150599 7.625 5.75 C8.40875 5.8325 9.1925 5.915 10 6 C9.125 10.875 9.125 10.875 8 12 C7.76924918 13.34747084 7.58846937 14.70377565 7.4375 16.0625 C7.293125 17.361875 7.14875 18.66125 7 20 C6.39671875 19.91621094 5.7934375 19.83242187 5.171875 19.74609375 C4.37265625 19.64425781 3.5734375 19.54242188 2.75 19.4375 C1.96109375 19.33308594 1.1721875 19.22867188 0.359375 19.12109375 C-2.00532874 18.99972651 -3.7511037 19.30366743 -6 20 C-6.1953125 17.98177083 -6.390625 15.96354167 -6.5859375 13.9453125 C-6.86374749 11.77331755 -6.86374749 11.77331755 -9 10 C-8.9375 8 -8.9375 8 -8 6 C-6.34561387 5.30341637 -4.67745682 4.63903117 -3 4 C-1.19651922 1.98682781 -1.19651922 1.98682781 0 0 Z " fill="#F9B91E" transform="translate(949,140)"/>
<path d="M0 0 C1.32 0 2.64 0 4 0 C4.33 1.32 4.66 2.64 5 4 C6.65 4.33 8.3 4.66 10 5 C10.042721 6.66611905 10.04063832 8.33382885 10 10 C9.67 10.33 9.34 10.66 9 11 C8.63239269 13.32817964 8.29758419 15.6618385 8 18 C4.63631382 19.12122873 2.42100517 18.76972616 -1 18 C-2.32 18 -3.64 18 -5 18 C-5.144375 16.948125 -5.28875 15.89625 -5.4375 14.8125 C-5.87526966 11.84539451 -6.37804866 8.93205634 -7 6 C-5.35 5.67 -3.7 5.34 -2 5 C-1.855625 4.360625 -1.71125 3.72125 -1.5625 3.0625 C-1 1 -1 1 0 0 Z " fill="#F9B514" transform="translate(1593,89)"/>
<path d="M0 0 C1.32 0 2.64 0 4 0 C4.33 1.32 4.66 2.64 5 4 C6.65 4 8.3 4 10 4 C10.625 5.875 10.625 5.875 11 8 C10.34 8.66 9.68 9.32 9 10 C8.28072705 12.31765729 7.6090107 14.65095874 7 17 C5.9275 16.835 4.855 16.67 3.75 16.5 C-0.03028752 15.91189085 -0.03028752 15.91189085 -4 16 C-5.17076699 12.01939223 -6.25749403 8.08378283 -7 4 C-6.030625 3.71125 -5.06125 3.4225 -4.0625 3.125 C-0.89335797 2.35785318 -0.89335797 2.35785318 0 0 Z " fill="#F9B617" transform="translate(245,198)"/>
<path d="M0 0 C3 1 3 1 5 4 C7.05925139 4.72382467 7.05925139 4.72382467 9 5 C8.855625 5.680625 8.71125 6.36125 8.5625 7.0625 C7.93054091 10.36273082 7.45686059 13.67144426 7 17 C3.04 17 -0.92 17 -5 17 C-5.12375 15.88625 -5.2475 14.7725 -5.375 13.625 C-5.6465813 9.96896323 -5.6465813 9.96896323 -8 8 C-8 7.01 -8 6.02 -8 5 C-6.576875 4.87625 -6.576875 4.87625 -5.125 4.75 C-1.89538209 4.34925077 -1.89538209 4.34925077 -0.625 1.9375 C-0.41875 1.298125 -0.2125 0.65875 0 0 Z " fill="#FABD24" transform="translate(1107,409)"/>
<path d="M0 0 C0.99 0 1.98 0 3 0 C3.33 1.32 3.66 2.64 4 4 C5.65 4.33 7.3 4.66 9 5 C8.25749403 9.08378283 7.17076699 13.01939223 6 17 C4.9275 16.814375 3.855 16.62875 2.75 16.4375 C-0.40391546 16.0695432 -2.09818492 15.95534657 -5 17 C-5.144375 15.865625 -5.28875 14.73125 -5.4375 13.5625 C-5.61171478 10.19222799 -5.61171478 10.19222799 -7 9 C-7.04063832 7.33382885 -7.042721 5.66611905 -7 4 C-5.824375 3.8453125 -5.824375 3.8453125 -4.625 3.6875 C-1.66954819 3.22404978 -1.66954819 3.22404978 0 0 Z " fill="#FABA20" transform="translate(579,290)"/>
<path d="M0 0 C0.99 0 1.98 0 3 0 C3.66 0.99 4.32 1.98 5 3 C7.05003955 4.19232613 7.05003955 4.19232613 9 5 C9 6.32 9 7.64 9 9 C8.34 9 7.68 9 7 9 C7 11.31 7 13.62 7 16 C3.37 16 -0.26 16 -4 16 C-7.34821429 7.96428571 -7.34821429 7.96428571 -6 4 C-5.38125 3.896875 -4.7625 3.79375 -4.125 3.6875 C-1.63473516 3.12474627 -1.63473516 3.12474627 0 0 Z " fill="#FBBE23" transform="translate(757,368)"/>
<path d="M0 0 C2.16551116 3.24826674 2.55156953 4.23094157 2 8 C0.375 10.3125 0.375 10.3125 -2 12 C-5.17235276 12.45319325 -7.06487736 12.52990283 -9.875 10.9375 C-11.66235303 7.85928089 -11.43386742 5.47093932 -11 2 C-7.88980721 -1.98104677 -4.56233816 -1.18282841 0 0 Z " fill="#F9B817" transform="translate(1129,63)"/>
<path d="M0 0 C0.70125 0.00515625 1.4025 0.0103125 2.125 0.015625 C2.82625 0.01046875 3.5275 0.0053125 4.25 0 C6.125 0.265625 6.125 0.265625 8.125 2.265625 C8.56162786 6.1952757 8.72251439 8.40254866 6.4375 11.703125 C3.67494945 13.56971321 2.39264255 13.85212494 -0.875 13.265625 C-2.6875 12.265625 -2.6875 12.265625 -3.875 10.265625 C-4.24162674 7.46436753 -4.10215523 5.12778096 -3.875 2.265625 C-1.875 0.265625 -1.875 0.265625 0 0 Z " fill="#F8B412" transform="translate(440.875,63.734375)"/>
<path d="M0 0 C0.53109375 0.47050781 1.0621875 0.94101563 1.609375 1.42578125 C4.51656642 3.3401573 6.81739077 3.70245739 10.25 4.1875 C11.32765625 4.34605469 12.4053125 4.50460938 13.515625 4.66796875 C14.33546875 4.77753906 15.1553125 4.88710937 16 5 C16 5.33 16 5.66 16 6 C15.21753906 6.13277344 14.43507813 6.26554687 13.62890625 6.40234375 C12.61699219 6.57894531 11.60507812 6.75554687 10.5625 6.9375 C9.55316406 7.11152344 8.54382813 7.28554687 7.50390625 7.46484375 C5.0712562 7.74751097 5.0712562 7.74751097 4 9 C3.62911153 10.61684194 3.30256403 12.24399077 3 13.875 C2.47337663 16.69737213 1.9099394 19.27018179 1 22 C0.34 22 -0.32 22 -1 22 C-1.06058594 21.16855469 -1.12117187 20.33710937 -1.18359375 19.48046875 C-1.26738281 18.39378906 -1.35117187 17.30710937 -1.4375 16.1875 C-1.51871094 15.10855469 -1.59992187 14.02960938 -1.68359375 12.91796875 C-1.90212461 9.94010095 -1.90212461 9.94010095 -3 7 C-5.97 6.505 -5.97 6.505 -9 6 C-9 5.67 -9 5.34 -9 5 C-7.02 5 -5.04 5 -3 5 C-3 4.34 -3 3.68 -3 3 C-2.34 3 -1.68 3 -1 3 C-0.67 2.01 -0.34 1.02 0 0 Z " fill="#FCE499" transform="translate(798,80)"/>
<path d="M0 0 C2 2 2 2 2.3125 5.4375 C2 9 2 9 0.875 10.9375 C-1.92162472 12.52225401 -3.8493196 12.45947423 -7 12 C-9.35210784 9.88310295 -9.91810953 8.55958485 -10.375 5.4375 C-10 3 -10 3 -8.9375 1.1875 C-5.94449731 -0.646921 -3.42183337 -0.31107576 0 0 Z " fill="#FBBF23" transform="translate(908,419)"/>
<path d="M0 0 C0.66 0 1.32 0 2 0 C2.66 2.97 3.32 5.94 4 9 C6.97 9.33 9.94 9.66 13 10 C13 10.66 13 11.32 13 12 C10.03 12.66 7.06 13.32 4 14 C3.34 17.3 2.68 20.6 2 24 C1.34 24 0.68 24 0 24 C-0.33 20.04 -0.66 16.08 -1 12 C-2.65 12 -4.3 12 -6 12 C-6 11.67 -6 11.34 -6 11 C-4.35 11 -2.7 11 -1 11 C-0.67 7.37 -0.34 3.74 0 0 Z " fill="#FCEBB1" transform="translate(1547,436)"/>
<path d="M0 0 C0.45375 0.61875 0.9075 1.2375 1.375 1.875 C3.66042269 4.86362967 5.62152282 6.42337731 9 8 C8 9 8 9 5.4375 9.0625 C4.633125 9.041875 3.82875 9.02125 3 9 C2.67 10.65 2.34 12.3 2 14 C1.34 14 0.68 14 0 14 C-0.33 14.66 -0.66 15.32 -1 16 C-1 13.69 -1 11.38 -1 9 C-3.97 8.505 -3.97 8.505 -7 8 C-4 6 -4 6 -1 6 C-1.020625 5.195625 -1.04125 4.39125 -1.0625 3.5625 C-1 1 -1 1 0 0 Z " fill="#FCEBB4" transform="translate(1209,254)"/>
<path d="M0 0 C2 2 2 2 2 5 C4.97 5.495 4.97 5.495 8 6 C7.34 6.66 6.68 7.32 6 8 C5.01 8 4.02 8 3 8 C2.87625 8.969375 2.7525 9.93875 2.625 10.9375 C2.41875 11.948125 2.2125 12.95875 2 14 C1.01 14.495 1.01 14.495 0 15 C-0.33 12.69 -0.66 10.38 -1 8 C-2.65 7.67 -4.3 7.34 -6 7 C-3 5 -3 5 -1 5 C-0.67 3.35 -0.34 1.7 0 0 Z " fill="#FDECB6" transform="translate(346,303)"/>
<path d="M0 0 C2 1.375 2 1.375 4 3 C4 3.66 4 4.32 4 5 C4.99 5.33 5.98 5.66 7 6 C6.195625 6.391875 5.39125 6.78375 4.5625 7.1875 C1.76935262 8.76948191 1.76935262 8.76948191 1.1875 11.6875 C1.125625 12.450625 1.06375 13.21375 1 14 C0.67 14 0.34 14 0 14 C-0.185625 13.05125 -0.37125 12.1025 -0.5625 11.125 C-1.73400805 7.61628301 -1.73400805 7.61628301 -5.625 6.625 C-6.73875 6.41875 -7.8525 6.2125 -9 6 C-9 5.67 -9 5.34 -9 5 C-7.02 5 -5.04 5 -3 5 C-3 4.34 -3 3.68 -3 3 C-2.34 3 -1.68 3 -1 3 C-0.67 2.01 -0.34 1.02 0 0 Z " fill="#FCF3D4" transform="translate(798,80)"/>
<path d="M0 0 C0.268125 0.5775 0.53625 1.155 0.8125 1.75 C2.01719859 4.0325868 3.40798115 5.9737942 5 8 C4.2884375 8.556875 4.2884375 8.556875 3.5625 9.125 C1.47794198 11.62646962 1.35378509 13.81593418 1 17 C0.67 17 0.34 17 0 17 C-0.268125 16.05125 -0.53625 15.1025 -0.8125 14.125 C-1.74986588 10.74732727 -1.74986588 10.74732727 -5 9 C-5 8.34 -5 7.68 -5 7 C-3.66666667 5.66666667 -2.33333333 4.33333333 -1 3 C-0.67 2.01 -0.34 1.02 0 0 Z " fill="#FCF0C7" transform="translate(162,81)"/>
<path d="M0 0 C0 0.99 0 1.98 0 3 C-0.825 3.680625 -1.65 4.36125 -2.5 5.0625 C-5.7408154 8.8704581 -5.42245277 11.16056724 -5.17578125 15.98828125 C-5.11777344 16.65214844 -5.05976563 17.31601562 -5 18 C-4.34 18.33 -3.68 18.66 -3 19 C-5.1875 21.5625 -5.1875 21.5625 -8 24 C-10.8125 23.8125 -10.8125 23.8125 -13 23 C-13 22.67 -13 22.34 -13 22 C-11.02 21.67 -9.04 21.34 -7 21 C-6.92283331 17.21883206 -6.95454879 14.15907925 -8 10.5 C-8 7 -8 7 -6.28515625 5.00390625 C-4.25208601 3.22809622 -2.19014856 1.57671526 0 0 Z " fill="#FCE090" transform="translate(509,418)"/>
<path d="M0 0 C3.875 4.75 3.875 4.75 5 7 C3.35 8.32 1.7 9.64 0 11 C-0.70125 10.525625 -1.4025 10.05125 -2.125 9.5625 C-5.16081337 7.91260143 -7.59168786 7.39631536 -11 7 C-11 6.67 -11 6.34 -11 6 C-10.37351562 5.90203125 -9.74703125 5.8040625 -9.1015625 5.703125 C-7.87566406 5.47882813 -7.87566406 5.47882813 -6.625 5.25 C-5.81289062 5.11078125 -5.00078125 4.9715625 -4.1640625 4.828125 C-1.82290908 4.18250739 -1.82290908 4.18250739 -0.7109375 1.921875 C-0.47632813 1.28765625 -0.24171875 0.6534375 0 0 Z " fill="#FCF2D4" transform="translate(1658,210)"/>
<path d="M0 0 C3 1 3 1 4.1875 3.0625 C4.455625 3.701875 4.72375 4.34125 5 5 C4.175 5.66 3.35 6.32 2.5 7 C-0.20670688 10.23780396 -0.20670688 10.23780396 -0.125 14.0625 C0 18 0 18 -1.5 20.5 C-1.995 20.995 -2.49 21.49 -3 22 C-4.32 21.67 -5.64 21.34 -7 21 C-5.68 20.34 -4.36 19.68 -3 19 C-3.06960938 17.96939453 -3.06960938 17.96939453 -3.140625 16.91796875 C-3.17671875 16.01691406 -3.2128125 15.11585938 -3.25 14.1875 C-3.29640625 13.29417969 -3.3428125 12.40085937 -3.390625 11.48046875 C-3 9 -3 9 -0.984375 7.17578125 C-0.32953125 6.78777344 0.3253125 6.39976562 1 6 C0.67 4.02 0.34 2.04 0 0 Z " fill="#FCE08A" transform="translate(260,370)"/>
<path d="M0 0 C3.3 0.33 6.6 0.66 10 1 C10 1.66 10 2.32 10 3 C7.03 3.66 4.06 4.32 1 5 C0.34 8.3 -0.32 11.6 -1 15 C-1.66 15 -2.32 15 -3 15 C-3 12.03 -3 9.06 -3 6 C-2.34 6 -1.68 6 -1 6 C-0.67 4.02 -0.34 2.04 0 0 Z " fill="#FCE191" transform="translate(1550,445)"/>
<path d="M0 0 C0.66 0 1.32 0 2 0 C2.66 0.99 3.32 1.98 4 3 C4.99 3.66 5.98 4.32 7 5 C6.360625 5.268125 5.72125 5.53625 5.0625 5.8125 C2.66868314 6.88667752 2.66868314 6.88667752 2 10 C1.34 10 0.68 10 0 10 C-0.185625 9.360625 -0.37125 8.72125 -0.5625 8.0625 C-1.94246056 5.57873787 -1.94246056 5.57873787 -5.625 5.25 C-6.73875 5.1675 -7.8525 5.085 -9 5 C-9 4.67 -9 4.34 -9 4 C-7.88625 3.896875 -6.7725 3.79375 -5.625 3.6875 C-4.42875 3.460625 -3.2325 3.23375 -2 3 C-1.34 2.01 -0.68 1.02 0 0 Z " fill="#FDF1C8" transform="translate(125,298)"/>
<path d="M0 0 C0.88751953 0.19529297 0.88751953 0.19529297 1.79296875 0.39453125 C1.79296875 0.72453125 1.79296875 1.05453125 1.79296875 1.39453125 C0.53484375 1.66265625 -0.72328125 1.93078125 -2.01953125 2.20703125 C-4.30847839 2.80151046 -6.09465667 3.32928149 -8.14453125 4.51953125 C-9.90990858 7.63490301 -9.91660192 10.85129341 -10.20703125 14.39453125 C-12.30881758 10.97912846 -12.77524351 8.3720171 -12.20703125 4.39453125 C-8.67697635 -0.95748747 -5.8505206 -1.02121648 0 0 Z " fill="#FCE59D" transform="translate(1669.20703125,215.60546875)"/>
<path d="M0 0 C0.90492187 0.02320313 1.80984375 0.04640625 2.7421875 0.0703125 C4.10730469 0.09738281 4.10730469 0.09738281 5.5 0.125 C6.19867187 0.14820313 6.89734375 0.17140625 7.6171875 0.1953125 C5.0517281 2.7607719 3.14032082 2.73577337 -0.3828125 3.1953125 C-0.3828125 4.8453125 -0.3828125 6.4953125 -0.3828125 8.1953125 C-1.7028125 7.8653125 -3.0228125 7.5353125 -4.3828125 7.1953125 C-4.5078125 4.8203125 -4.5078125 4.8203125 -4.3828125 2.1953125 C-2.3828125 0.1953125 -2.3828125 0.1953125 0 0 Z " fill="#FBBC21" transform="translate(1285.3828125,148.8046875)"/>
<path d="M0 0 C0.33 1.32 0.66 2.64 1 4 C-0.59887554 5.48488441 -2.20428905 6.96273145 -3.8125 8.4375 C-5.15248047 9.67306641 -5.15248047 9.67306641 -6.51953125 10.93359375 C-9 13 -9 13 -12 14 C-10.64564617 10.87353147 -9.22498698 9.10708647 -6.5625 7 C-3.96182322 4.86527781 -1.85750071 2.84088344 0 0 Z " fill="#FCE291" transform="translate(1084,264)"/>
<path d="M0 0 C0.66 0.33 1.32 0.66 2 1 C4.88370333 1.07194869 7.74239664 1.09291708 10.625 1.0625 C11.42679688 1.05798828 12.22859375 1.05347656 13.0546875 1.04882812 C15.03649006 1.03703168 17.01825433 1.01909605 19 1 C19 1.33 19 1.66 19 2 C17.19402344 2.16435547 17.19402344 2.16435547 15.3515625 2.33203125 C13.77596853 2.49146635 12.20045139 2.65166212 10.625 2.8125 C9.8309375 2.88275391 9.036875 2.95300781 8.21875 3.02539062 C6.13220534 3.2464229 4.06260683 3.6150624 2 4 C1.01 5.485 1.01 5.485 0 7 C0 6.34 0 5.68 0 5 C-0.66 5 -1.32 5 -2 5 C-1.125 1.125 -1.125 1.125 0 0 Z " fill="#FBC843" transform="translate(1025,256)"/>
<path d="M0 0 C2.31 0.33 4.62 0.66 7 1 C6.67 1.66 6.34 2.32 6 3 C4.35 3 2.7 3 1 3 C0.67 4.65 0.34 6.3 0 8 C-0.66 8 -1.32 8 -2 8 C-2.33 8.66 -2.66 9.32 -3 10 C-3 7.69 -3 5.38 -3 3 C-2.01 2.67 -1.02 2.34 0 2 C0 1.34 0 0.68 0 0 Z " fill="#FCE5A2" transform="translate(1211,260)"/>
<path d="M0 0 C0.33 0 0.66 0 1 0 C1.33 1.65 1.66 3.3 2 5 C3.65 5.33 5.3 5.66 7 6 C7 6.99 7 7.98 7 9 C4.125 9.125 4.125 9.125 1 9 C-1 7 -1 7 -1.1875 3.9375 C-1 1 -1 1 0 0 Z " fill="#FBBA1E" transform="translate(1032,289)"/>
<path d="M0 0 C2.97 0.495 2.97 0.495 6 1 C5.34 1.66 4.68 2.32 4 3 C3.01 3 2.02 3 1 3 C0.87625 3.969375 0.7525 4.93875 0.625 5.9375 C0.41875 6.948125 0.2125 7.95875 0 9 C-0.99 9.495 -0.99 9.495 -2 10 C-2.33 7.69 -2.66 5.38 -3 3 C-2.01 2.67 -1.02 2.34 0 2 C0 1.34 0 0.68 0 0 Z " fill="#FCE6A2" transform="translate(348,308)"/>
<path d="M0 0 C0.66 0.33 1.32 0.66 2 1 C-0.3107221 8.5273523 -0.3107221 8.5273523 -3.1875 10.5 C-3.785625 10.665 -4.38375 10.83 -5 11 C-5.66 10.01 -6.32 9.02 -7 8 C-5.35 8 -3.7 8 -2 8 C-2 5.69 -2 3.38 -2 1 C-1.34 0.67 -0.68 0.34 0 0 Z " fill="#FBE395" transform="translate(766,376)"/>
<path d="M0 0 C6.75 0.875 6.75 0.875 9 2 C9.625 4.0625 9.625 4.0625 10 6 C6.51329166 4.8905928 3.22515763 3.73662334 0 2 C0 1.34 0 0.68 0 0 Z " fill="#FCBA1D" transform="translate(433,219)"/>
<path d="M0 0 C1.32 0 2.64 0 4 0 C4 0.66 4 1.32 4 2 C7.63 2 11.26 2 15 2 C15 2.33 15 2.66 15 3 C12.36 3.33 9.72 3.66 7 4 C7 4.33 7 4.66 7 5 C5.35 5 3.7 5 2 5 C1.34 3.35 0.68 1.7 0 0 Z " fill="#F8BE32" transform="translate(438,184)"/>
<path d="M0 0 C1.65 0 3.3 0 5 0 C5.33 0.99 5.66 1.98 6 3 C5.67 3.66 5.34 4.32 5 5 C2.69 4.67 0.38 4.34 -2 4 C-1.34 2.68 -0.68 1.36 0 0 Z " fill="#F9BE2C" transform="translate(486,399)"/>
<path d="M0 0 C-2.99879215 1.99919476 -5.59093411 2.91200025 -9 4 C-9.99 4.495 -9.99 4.495 -11 5 C-12.99960012 5.039992 -15.00047242 5.04346799 -17 5 C-16.42121094 4.71511719 -15.84242187 4.43023437 -15.24609375 4.13671875 C-13.82722284 3.41864669 -12.42108568 2.67428876 -11.03515625 1.89453125 C-4.50281426 -1.68855535 -4.50281426 -1.68855535 0 0 Z " fill="#FDD14E" transform="translate(1748,155)"/>
<path d="M0 0 C0.66 0.33 1.32 0.66 2 1 C-3.28922815 4.92194468 -7.32646591 7.71601983 -14 8 C-11.19921966 6.13281311 -8.37274624 4.45795762 -5.4375 2.8125 C-4.46683594 2.26207031 -3.49617188 1.71164062 -2.49609375 1.14453125 C-1.67238281 0.76683594 -0.84867188 0.38914062 0 0 Z " fill="#FCE497" transform="translate(1048,292)"/>
<path d="M0 0 C-1.14453125 1.48828125 -1.14453125 1.48828125 -3 3 C-5.69921875 3.29296875 -5.69921875 3.29296875 -8.6875 3.1875 C-9.68136719 3.16042969 -10.67523438 3.13335937 -11.69921875 3.10546875 C-12.45847656 3.07066406 -13.21773438 3.03585938 -14 3 C-9.12941325 0.48073099 -5.50946709 -0.10395221 0 0 Z " fill="#F9B91C" transform="translate(420,188)"/>
<path d="M0 0 C0.66 0.66 1.32 1.32 2 2 C4.57061311 2.64767793 4.57061311 2.64767793 7 3 C4.68143083 4.54571278 2.49361571 5.79618552 0 7 C-0.99 5.68 -1.98 4.36 -3 3 C-2.01 2.01 -1.02 1.02 0 0 Z " fill="#FDF1C7" transform="translate(1456,115)"/>
<path d="M0 0 C0.33 0 0.66 0 1 0 C0.67 2.31 0.34 4.62 0 7 C-2.31 7 -4.62 7 -7 7 C-4.66666667 4.66666667 -2.33333333 2.33333333 0 0 Z " fill="#F9B81B" transform="translate(1658,363)"/>
<path d="M0 0 C0.66 1.32 1.32 2.64 2 4 C0.5625 6.0625 0.5625 6.0625 -2 8 C-5.07583023 8.05823431 -7.98735648 7.59222907 -11 7 C-11 6.67 -11 6.34 -11 6 C-10.37351562 5.90203125 -9.74703125 5.8040625 -9.1015625 5.703125 C-7.87566406 5.47882813 -7.87566406 5.47882813 -6.625 5.25 C-5.81289062 5.11078125 -5.00078125 4.9715625 -4.1640625 4.828125 C-1.82290908 4.18250739 -1.82290908 4.18250739 -0.7109375 1.921875 C-0.47632813 1.28765625 -0.24171875 0.6534375 0 0 Z " fill="#FCEDBC" transform="translate(1658,210)"/>
<path d="M0 0 C0.99 0.33 1.98 0.66 3 1 C2.34 2.65 1.68 4.3 1 6 C-0.65 6 -2.3 6 -4 6 C-3.34 5.34 -2.68 4.68 -2 4 C-2.99 3.34 -3.98 2.68 -5 2 C-3.35 2 -1.7 2 0 2 C0 1.34 0 0.68 0 0 Z " fill="#FAC237" transform="translate(421,185)"/>
<path d="M0 0 C0.99 0 1.98 0 3 0 C1.66666667 2.66666667 0.33333333 5.33333333 -1 8 C-1.66 7.34 -2.32 6.68 -3 6 C-2.63318342 3.06546739 -2.13562754 2.13562754 0 0 Z " fill="#FAB922" transform="translate(1314,159)"/>
<path d="M0 0 C0.598125 0.226875 1.19625 0.45375 1.8125 0.6875 C0.8225 1.3475 -0.1675 2.0075 -1.1875 2.6875 C-1.1875 3.3475 -1.1875 4.0075 -1.1875 4.6875 C-2.5075 4.6875 -3.8275 4.6875 -5.1875 4.6875 C-5.5175 5.6775 -5.8475 6.6675 -6.1875 7.6875 C-5.82037028 4.97074005 -5.46005401 3.07686287 -3.875 0.8125 C-2.1875 -0.3125 -2.1875 -0.3125 0 0 Z " fill="#FDDF8B" transform="translate(169.1875,88.3125)"/>
<path d="M0 0 C2.475 0.99 2.475 0.99 5 2 C4.01 2.99 3.02 3.98 2 5 C0.68 4.34 -0.64 3.68 -2 3 C-1.34 2.01 -0.68 1.02 0 0 Z " fill="#FCECAF" transform="translate(1791,374)"/>
<path d="M0 0 C2 3 2 3 2 5 C2.9590625 5.433125 2.9590625 5.433125 3.9375 5.875 C6 7 6 7 7 9 C5.35 9 3.7 9 2 9 C0.50178941 5.62902617 0 3.79557881 0 0 Z " fill="#FDE290" transform="translate(1062,245)"/>
<path d="M0 0 C0.33 0 0.66 0 1 0 C1.3690205 9.41002278 1.3690205 9.41002278 -1 14 C-1.33 14 -1.66 14 -2 14 C-1.85795259 12.41632253 -1.71119847 10.83306682 -1.5625 9.25 C-1.48128906 8.36828125 -1.40007812 7.4865625 -1.31640625 6.578125 C-1.03761535 4.30649548 -0.61209423 2.20148177 0 0 Z " fill="#FDD358" transform="translate(68,188)"/>
<path d="M0 0 C0.99 0.495 0.99 0.495 2 1 C2.59355614 3.64860427 2.74209269 6.29197322 3 9 C2.34 9 1.68 9 1 9 C-0.4783226 6.04335481 -0.06032783 3.25770263 0 0 Z " fill="#FBBA27" transform="translate(449,207)"/>
<path d="M0 0 C1.125 1.75 1.125 1.75 2 4 C1.125 6.25 1.125 6.25 0 8 C-0.66 8 -1.32 8 -2 8 C-1.125 1.125 -1.125 1.125 0 0 Z " fill="#FAB71E" transform="translate(424,178)"/>
<path d="M0 0 C1.125 3.75 1.125 3.75 0 6 C0.66 6 1.32 6 2 6 C1.67 6.66 1.34 7.32 1 8 C0.67 8 0.34 8 0 8 C-0.33 9.65 -0.66 11.3 -1 13 C-1.33 13 -1.66 13 -2 13 C-2.19294408 8.17639811 -1.75747614 4.50353262 0 0 Z " fill="#FAC648" transform="translate(1032,282)"/>
<path d="M0 0 C2.375 0.8125 2.375 0.8125 4.375 2.8125 C0.745 2.8125 -2.885 2.8125 -6.625 2.8125 C-2.625 -0.1875 -2.625 -0.1875 0 0 Z " fill="#FCE392" transform="translate(580.625,305.1875)"/>
<path d="M0 0 C-6.625 3.125 -6.625 3.125 -10 2 C-10 1.67 -10 1.34 -10 1 C-3.71428571 -1.42857143 -3.71428571 -1.42857143 0 0 Z " fill="#FDD461" transform="translate(177,89)"/>
</svg>
